<svg width="125" height="36" viewBox="0 0 125 36" fill="none" xmlns="http://www.w3.org/2000/svg">
<path fill-rule="evenodd" clip-rule="evenodd" d="M31.4174 17.5271H23.3742V25.5703H21.3742C19.3879 25.5703 17.4461 24.9812 15.7946 23.8777C14.143 22.7741 12.8557 21.2056 12.0956 19.3704C11.3354 17.5353 11.1365 15.5159 11.524 13.5678C11.9116 11.6196 12.8681 9.83004 14.2726 8.42547C15.6772 7.02091 17.4667 6.06439 19.4149 5.67687C21.3631 5.28935 23.3825 5.48824 25.2176 6.24838C27.0528 7.00853 28.6213 8.29579 29.7249 9.94738C30.8284 11.599 31.4174 13.5407 31.4174 15.5271V17.5271ZM19.3742 23.3176C18.4997 23.0931 17.6645 22.7217 16.9057 22.2147C15.583 21.331 14.5521 20.0748 13.9433 18.6051C13.3345 17.1354 13.1753 15.5182 13.4856 13.9579C13.796 12.3977 14.562 10.9645 15.6869 9.83969C16.8117 8.71483 18.2449 7.94879 19.8051 7.63844C21.3653 7.32809 22.9825 7.48737 24.4522 8.09614C25.9219 8.70491 27.1781 9.73583 28.0619 11.0585C28.5689 11.8173 28.9403 12.6525 29.1648 13.5271C29.3317 14.1771 29.4174 14.8488 29.4174 15.5271H21.3742V23.5703C20.696 23.5703 20.0243 23.4845 19.3742 23.3176Z" fill="black"/>
<path fill-rule="evenodd" clip-rule="evenodd" d="M23.3768 0V7.3818H21.3768C19.2165 7.3818 17.1447 8.23997 15.6171 9.76752C14.0896 11.2951 13.2314 13.3669 13.2314 15.5272C13.2314 17.6875 14.0896 19.7593 15.6171 21.2868C17.1447 22.8144 19.2165 23.6726 21.3768 23.6726H23.3768L23.3768 31.0544H21.3768C17.2587 31.0544 13.3093 29.4185 10.3974 26.5066C7.4855 23.5946 5.84961 19.6452 5.84961 15.5272C5.84961 11.4091 7.4855 7.45972 10.3974 4.54781C13.3093 1.63589 17.2587 0 21.3768 0H23.3768ZM21.3768 5.3818C18.6861 5.3818 16.1055 6.45068 14.2029 8.35331C12.3003 10.2559 11.2314 12.8365 11.2314 15.5272C11.2314 18.2179 12.3003 20.7984 14.2029 22.7011C16.1045 24.6026 18.6833 25.6714 21.3724 25.6726C21.3739 25.6726 21.3753 25.6726 21.3768 25.6726L21.3768 29.0544C21.3751 29.0544 21.3734 29.0544 21.3717 29.0544C20.6999 29.0541 20.0333 29.0039 19.3768 28.9058C16.5292 28.4801 13.8722 27.1529 11.8116 25.0923C9.27479 22.5555 7.84961 19.1148 7.84961 15.5272C7.84961 11.9396 9.27479 8.49886 11.8116 5.96202C13.8722 3.90143 16.5292 2.57428 19.3768 2.14861C20.0349 2.05023 20.7033 2 21.3768 2V5.3818Z" fill="black"/>
<path fill-rule="evenodd" clip-rule="evenodd" d="M1.19209e-07 12.6133L7.48782 12.6133V14.6133C7.48782 16.4372 7.84707 18.2433 8.54505 19.9284C9.24304 21.6134 10.2661 23.1445 11.5558 24.4343C12.8455 25.724 14.3766 26.747 16.0617 27.445C17.7468 28.143 19.5529 28.5022 21.3768 28.5022H23.3768L23.3768 35.9901H21.3768C18.5695 35.9901 15.7898 35.4371 13.1962 34.3628C10.6027 33.2886 8.24613 31.714 6.26111 29.7289C4.27609 27.7439 2.70149 25.3874 1.62721 22.7938C0.552926 20.2003 -2.38419e-07 17.4205 0 14.6133L1.19209e-07 12.6133ZM5.48782 14.6133C5.48782 16.6998 5.8988 18.766 6.69729 20.6937C7.49579 22.6215 8.66616 24.373 10.1416 25.8485C11.617 27.3239 13.3686 28.4943 15.2963 29.2928C17.2241 30.0913 19.2902 30.5022 21.3768 30.5022L21.3768 33.9901C21.3747 33.9901 21.3727 33.9901 21.3707 33.9901C20.7035 33.9898 20.038 33.9552 19.3768 33.8866C17.5184 33.6937 15.6942 33.2327 13.9616 32.5151C11.6107 31.5413 9.47462 30.114 7.67532 28.3147C5.87603 26.5154 4.44874 24.3794 3.47497 22.0285C2.75731 20.2959 2.29633 18.4716 2.10349 16.6133C2.03467 15.9501 2 15.2825 2 14.6133H5.48782Z" fill="black"/>
<path d="M53.194 12.7711V25.9951H50.458V24.4351C50.026 24.9791 49.458 25.4111 48.754 25.7311C48.066 26.0351 47.33 26.1871 46.546 26.1871C45.506 26.1871 44.57 25.9711 43.738 25.5391C42.922 25.1071 42.274 24.4671 41.794 23.6191C41.33 22.7711 41.098 21.7471 41.098 20.5471V12.7711H43.81V20.1391C43.81 21.3231 44.106 22.2351 44.698 22.8751C45.29 23.4991 46.098 23.8111 47.122 23.8111C48.146 23.8111 48.954 23.4991 49.546 22.8751C50.154 22.2351 50.458 21.3231 50.458 20.1391V12.7711H53.194ZM61.5079 19.2991L65.7799 25.9951H62.6839L59.8279 21.5071L57.1399 25.9951H54.2839L58.5559 19.4911L54.2839 12.7711H57.3799L60.2359 17.2591L62.9239 12.7711H65.7799L61.5079 19.2991ZM69.5965 8.23512V25.9951H66.8605V8.23512H69.5965ZM77.9646 26.2111C76.7166 26.2111 75.5886 25.9311 74.5806 25.3711C73.5726 24.7951 72.7806 23.9951 72.2046 22.9711C71.6286 21.9311 71.3406 20.7311 71.3406 19.3711C71.3406 18.0271 71.6366 16.8351 72.2286 15.7951C72.8206 14.7551 73.6286 13.9551 74.6526 13.3951C75.6766 12.8351 76.8206 12.5551 78.0846 12.5551C79.3486 12.5551 80.4926 12.8351 81.5166 13.3951C82.5406 13.9551 83.3486 14.7551 83.9406 15.7951C84.5326 16.8351 84.8286 18.0271 84.8286 19.3711C84.8286 20.7151 84.5246 21.9071 83.9166 22.9471C83.3086 23.9871 82.4766 24.7951 81.4206 25.3711C80.3806 25.9311 79.2286 26.2111 77.9646 26.2111ZM77.9646 23.8351C78.6686 23.8351 79.3246 23.6671 79.9326 23.3311C80.5566 22.9951 81.0606 22.4911 81.4446 21.8191C81.8286 21.1471 82.0206 20.3311 82.0206 19.3711C82.0206 18.4111 81.8366 17.6031 81.4686 16.9471C81.1006 16.2751 80.6126 15.7711 80.0046 15.4351C79.3966 15.0991 78.7406 14.9311 78.0366 14.9311C77.3326 14.9311 76.6766 15.0991 76.0686 15.4351C75.4766 15.7711 75.0046 16.2751 74.6526 16.9471C74.3006 17.6031 74.1246 18.4111 74.1246 19.3711C74.1246 20.7951 74.4846 21.8991 75.2046 22.6831C75.9406 23.4511 76.8606 23.8351 77.9646 23.8351ZM92.3093 26.2111C91.0613 26.2111 89.9333 25.9311 88.9253 25.3711C87.9173 24.7951 87.1253 23.9951 86.5493 22.9711C85.9733 21.9311 85.6853 20.7311 85.6853 19.3711C85.6853 18.0271 85.9813 16.8351 86.5733 15.7951C87.1653 14.7551 87.9733 13.9551 88.9973 13.3951C90.0213 12.8351 91.1653 12.5551 92.4293 12.5551C93.6933 12.5551 94.8373 12.8351 95.8613 13.3951C96.8853 13.9551 97.6933 14.7551 98.2853 15.7951C98.8773 16.8351 99.1733 18.0271 99.1733 19.3711C99.1733 20.7151 98.8693 21.9071 98.2613 22.9471C97.6533 23.9871 96.8213 24.7951 95.7653 25.3711C94.7253 25.9311 93.5733 26.2111 92.3093 26.2111ZM92.3093 23.8351C93.0133 23.8351 93.6693 23.6671 94.2773 23.3311C94.9013 22.9951 95.4053 22.4911 95.7893 21.8191C96.1733 21.1471 96.3653 20.3311 96.3653 19.3711C96.3653 18.4111 96.1813 17.6031 95.8133 16.9471C95.4453 16.2751 94.9573 15.7711 94.3493 15.4351C93.7413 15.0991 93.0853 14.9311 92.3813 14.9311C91.6773 14.9311 91.0213 15.0991 90.4133 15.4351C89.8213 15.7711 89.3493 16.2751 88.9973 16.9471C88.6453 17.6031 88.4693 18.4111 88.4693 19.3711C88.4693 20.7951 88.8293 21.8991 89.5493 22.6831C90.2853 23.4511 91.2053 23.8351 92.3093 23.8351ZM116.926 12.5551C117.966 12.5551 118.894 12.7711 119.71 13.2031C120.542 13.6351 121.19 14.2751 121.654 15.1231C122.134 15.9711 122.374 16.9951 122.374 18.1951V25.9951H119.662V18.6031C119.662 17.4191 119.366 16.5151 118.774 15.8911C118.182 15.2511 117.374 14.9311 116.35 14.9311C115.326 14.9311 114.51 15.2511 113.902 15.8911C113.31 16.5151 113.014 17.4191 113.014 18.6031V25.9951H110.302V18.6031C110.302 17.4191 110.006 16.5151 109.414 15.8911C108.822 15.2511 108.014 14.9311 106.99 14.9311C105.966 14.9311 105.15 15.2511 104.542 15.8911C103.95 16.5151 103.654 17.4191 103.654 18.6031V25.9951H100.918V12.7711H103.654V14.2831C104.102 13.7391 104.67 13.3151 105.358 13.0111C106.046 12.7071 106.782 12.5551 107.566 12.5551C108.622 12.5551 109.566 12.7791 110.398 13.2271C111.23 13.6751 111.87 14.3231 112.318 15.1711C112.718 14.3711 113.342 13.7391 114.19 13.2751C115.038 12.7951 115.95 12.5551 116.926 12.5551Z" fill="black"/>
</svg>
